<?xml version="1.0" encoding="UTF-8" standalone="no"?>
<!-- Created with Inkscape (http://www.inkscape.org/) -->

<svg width="52.343678mm" height="46.452843mm" viewBox="0 0 52.343678 46.452843" version="1.1" id="svg1" xml:space="preserve" xmlns:inkscape="http://www.inkscape.org/namespaces/inkscape" xmlns:sodipodi="http://sodipodi.sourceforge.net/DTD/sodipodi-0.dtd" xmlns="http://www.w3.org/2000/svg" xmlns:svg="http://www.w3.org/2000/svg"><sodipodi:namedview id="namedview1" pagecolor="#505050" bordercolor="#eeeeee" borderopacity="1" inkscape:showpageshadow="0" inkscape:pageopacity="0" inkscape:pagecheckerboard="0" inkscape:deskcolor="#505050" inkscape:document-units="mm" /><defs id="defs1" /><g inkscape:label="Layer 1" inkscape:groupmode="layer" id="layer1" transform="translate(-132.43628,-102.4987)"><path style="fill:#ffffff;fill-opacity:1" d="m 166.99105,146.87058 c -1.77522,-1.43113 -1.23807,-5.97369 -4.44843,-5.09345 -1.1431,0.50516 -4.45125,0.38696 -1.47157,-0.40277 2.72659,-0.27266 3.83839,-2.84626 2.38505,-5.06492 -1.06943,-2.41505 -1.0766,-7.41559 -4.36913,-7.42904 -1.97575,1.30168 -2.78268,4.99013 0.24731,5.4049 1.01777,1.17441 -3.11328,-0.28102 -3.30546,1.53691 -1.45471,2.43186 -1.83415,5.4024 -3.1654,7.86514 0.007,-1.92248 -3.9021,-2.47273 -3.52228,-3.68924 1.88012,0.78349 5.05358,2.32359 4.85045,-1.16441 1.12112,-3.74769 2.4811,-7.42393 3.4455,-11.21803 -0.41751,-1.80348 -3.10848,0.01 -1.63611,1.09814 -3.13795,-0.0729 -4.52626,3.41811 -6.81594,5.01175 -3.0553,3.01608 -6.09307,6.05007 -9.17438,9.03969 0.98894,-2.1263 4.66955,-3.45169 3.64003,-6.18365 -0.54396,-0.84345 -3.07492,-4.47858 -0.98217,-2.57534 1.32084,2.32596 4.00904,2.6979 5.14332,0.0723 2.61982,-2.85029 5.44668,-5.53593 7.69609,-8.7036 -1.32441,-3.02632 -5.13369,0.55862 -7.46834,0.62711 -4.45986,1.52516 -9.16088,2.49828 -13.38273,4.62562 -0.95429,0.80765 -3.52409,2.30262 -1.40482,0.57321 2.00303,-1.62823 4.43556,-2.59613 6.85849,-3.41143 2.21307,-2.33759 0.85841,-5.88779 1.83959,-8.6989 0.97682,1.04019 -0.0325,4.69107 0.47148,6.65419 0.50825,2.17161 3.73576,-0.32882 5.2585,-0.67991 1.5442,-0.39648 1.70167,-2.60298 2.56275,-3.17481 -0.28815,3.5486 5.68796,1.00994 4.39682,-1.56414 -5.49839,-2.50954 -11.78729,-2.94956 -16.96606,-6.22264 -1.31258,-0.86471 -3.22474,-1.64138 -4.1604,-2.59965 2.50261,0.72924 4.51482,2.94668 7.18683,2.99248 2.49845,-1.61511 3.12038,-5.18803 5.02759,-7.48521 0.73638,-1.22103 1.13474,-1.51083 0.48182,-0.0273 -1.1062,2.92145 -2.70801,5.63849 -3.6457,8.62646 3.00324,0.85372 6.03676,1.59456 9.05479,2.39307 0.98117,-0.10735 4.3364,-2.90963 2.50513,-0.44398 -0.40816,3.02578 5.42916,-0.91772 2.56088,-2.57696 -1.5561,-2.7678 -1.10575,-6.02522 -1.75875,-8.98579 -0.52194,-0.99442 -2.07589,-5.07576 -0.51822,-2.31462 1.92808,2.6018 1.4232,5.86541 2.25344,8.78957 0.46099,2.95822 4.45519,4.16115 5.46792,0.79773 1.00516,-2.29342 1.47992,-4.8338 1.66039,-7.31648 0.0351,-1.18656 -0.7308,-5.4471 0.17221,-2.34227 0.90289,2.25346 -1.23174,7.30902 2.6218,6.76028 1.24607,-0.20008 2.76527,0.81094 0.57012,0.73913 -1.8427,-0.52828 -5.86265,1.63801 -3.09022,3.16588 3.06277,0.97813 4.95449,-2.16356 7.07284,-3.71452 3.04443,-2.48984 6.19581,-4.87019 9.59992,-6.8508 -2.53868,2.53682 -5.67924,4.37455 -8.31441,6.81442 -2.23761,1.87477 -4.46903,3.86314 -5.96423,6.40589 1.43266,2.93095 3.99587,-2.65549 4.9928,-2.10531 -1.45692,1.84702 -1.92946,5.88069 1.52978,5.36448 2.12518,-0.65914 4.98,0.42925 6.64806,-1.23841 0.11569,-1.66989 -1.45885,-5.64724 -0.58975,-5.91274 1.16439,2.29372 0.92044,6.61879 4.36573,6.55831 -1.54762,0.58568 -4.25241,0.59873 -6.236,0.89588 -2.30767,0.33027 -4.77335,0.35773 -6.93123,1.22513 -2.02739,1.09018 -2.58422,4.20826 0.30169,4.45347 2.79583,1.57028 5.57266,3.1781 8.43584,4.62427 0.86829,-1.31041 1.45011,-4.93391 2.5272,-4.70568 -0.31156,2.15034 -2.5634,5.84128 1.04811,6.30949 1.22518,0.35965 3.66678,1.73151 1.10278,0.79611 -5.54553,-1.78342 -10.59012,-4.75573 -15.89104,-7.11615 -3.20899,0.54899 -0.31087,4.67451 -0.25408,6.73579 0.33196,1.34069 1.3741,4.31316 0.96735,4.7085 -1.28387,-3.08182 -2.49998,-6.19543 -3.51173,-9.37835 -3.33895,-0.0209 -1.54049,4.16211 -1.17747,6.07365 0.71184,1.6112 0.22128,5.15256 1.80496,5.48425 3.0331,-0.8039 5.86017,-2.20625 8.62758,-3.65635 -2.29582,2.48565 -5.54378,3.67067 -8.47768,5.19739 -1.05233,2.93814 1.93113,5.17458 2.86262,7.70721 -0.48998,-0.10008 -1.13237,-1.53185 -1.61183,-2.08092 z m -5.86498,-19.27939 c 0.0272,-1.09627 -0.9746,-4.03554 -1.64795,-1.51847 -1.32133,1.28474 0.46787,2.49879 1.64795,1.51847 z m 4.04953,-1.60418 c 1.44422,-1.82267 -3.26558,-2.68827 -3.5542,-2.74066 0.0843,1.74877 0.34573,6.09769 2.82926,3.31073 l 0.36288,-0.28453 z m -6.70567,-0.64833 c 0.0963,-2.17199 -1.55884,2.39802 -0.059,0.20205 l 0.0396,-0.13571 z m -0.96953,-1.76404 c 0.91228,-2.25596 -3.11739,2.02302 0,0 z m 10.8693,-1.46872 c -0.63341,-1.35467 -3.52252,0.0354 -4.44392,0.23744 1.07473,1.71895 3.94531,2.06678 4.43696,-0.22584 z m -11.68785,-0.22123 c 3.19885,-0.40087 -1.9819,-2.42297 -0.79488,0.1555 0.26065,0.15413 0.56916,-0.0461 0.79488,-0.1555 z m 12.03082,-1.56904 c 2.63369,-0.58769 -1.67977,-1.88395 -2.5336,-0.88919 -1.11641,-0.009 -2.60141,1.49331 -0.57561,1.08926 1.03846,-0.0245 2.07726,-0.0778 3.10921,-0.20007 z m -10.16156,-1.3629 c -0.31037,-2.48049 -3.27998,1.39704 -0.37273,0.81753 1.10437,0.5299 0.63823,-0.1595 0.37273,-0.81753 z m 7.29547,-0.39909 c 0.12031,-3.0921 -4.2128,2.37615 -1.25135,0.54352 0.42155,-0.17047 0.84648,-0.33523 1.25135,-0.54352 z m -5.00522,-1.51914 c -2.25087,-1.75271 -1.21957,3.0981 -0.11177,0.71184 l 0.0653,-0.35575 z m 3.69024,-0.66352 c 1.45277,-1.74935 -3.43991,-1.46562 -2.39283,0.68723 -1.19533,3.59416 1.43461,-0.19529 2.39283,-0.68723 z" id="path1" /></g></svg>
