<?xml version="1.0" encoding="UTF-8" standalone="no"?>
<!-- Created with Inkscape (http://www.inkscape.org/) -->

<svg width="80.102821mm" height="79.262474mm" viewBox="0 0 80.102821 79.262474" version="1.1" id="svg1" xml:space="preserve" xmlns:inkscape="http://www.inkscape.org/namespaces/inkscape" xmlns:sodipodi="http://sodipodi.sourceforge.net/DTD/sodipodi-0.dtd" xmlns="http://www.w3.org/2000/svg" xmlns:svg="http://www.w3.org/2000/svg"><sodipodi:namedview id="namedview1" pagecolor="#505050" bordercolor="#eeeeee" borderopacity="1" inkscape:showpageshadow="0" inkscape:pageopacity="0" inkscape:pagecheckerboard="0" inkscape:deskcolor="#505050" inkscape:document-units="mm" /><defs id="defs1" /><g inkscape:label="Layer 1" inkscape:groupmode="layer" id="layer1" transform="translate(-1.1978871,-218.4875)"><path id="path13" style="display:inline;fill:#000000;stroke-width:1.18434" inkscape:label="path12" d="m 41.503906,218.49609 c -5.443489,0.71753 -10.648568,2.44474 -16.031362,3.39496 -5.570449,1.18872 -11.238089,1.98082 -16.7123898,3.57571 -3.4175384,1.24513 -6.345812,4.1809 -6.953239,7.85185 -1.21743637,4.98191 -0.2878086,10.12203 0.035782,15.15167 0.8725213,9.2371 2.5570542,18.64777 7.114236,26.84747 3.2519988,5.66663 8.1559898,10.16413 13.3437408,14.03477 2.00894,1.35385 4.197975,2.41098 6.304119,3.60225 3.547627,1.85806 7.226438,3.53862 11.08786,4.62339 3.550829,0.66923 7.074256,-0.73073 10.226663,-2.22835 5.729469,-2.70677 11.387778,-5.80435 16.061153,-10.14083 4.997228,-4.7576 8.977382,-10.67563 11.003545,-17.30319 1.479307,-3.88086 2.528077,-7.93115 2.94595,-12.06794 0.917938,-6.95345 1.465577,-13.97132 1.357145,-20.98824 -0.09962,-2.78373 -0.874695,-5.76332 -3.086111,-7.62774 -2.12267,-1.84594 -5.002005,-2.3546 -7.672843,-2.89753 -8.846652,-1.47831 -17.612746,-3.47501 -26.366989,-5.4626 -0.879569,-0.15998 -1.754254,-0.4253 -2.65726,-0.36565 z m 0.214844,4.18164 c 1.750419,0.0719 3.405244,0.76429 5.117675,1.08958 7.933484,1.89262 15.940896,3.44801 23.968351,4.8803 1.905325,0.43393 4.173281,0.77655 5.353102,2.52154 1.138408,1.98974 0.966664,4.38579 0.993607,6.59878 -0.212744,7.65453 -0.811265,15.31402 -2.217331,22.85611 -0.331086,1.82082 -1.203785,3.47711 -1.687292,5.2578 -1.352205,4.28745 -3.280943,8.45657 -6.191814,11.91754 -1.902434,2.53264 -4.239023,4.71266 -6.654979,6.74639 -1.019791,0.61809 -1.999782,1.30248 -2.981744,1.98372 -3.575683,2.26134 -7.315504,4.2623 -11.223889,5.88736 -1.834457,0.87035 -3.887317,1.33536 -5.915139,1.06753 -4.253683,-1.55037 -8.422631,-3.28823 -12.269531,-5.66993 -0.728468,-0.52675 -1.534171,-0.92327 -2.361899,-1.24352 -1.502224,-0.83063 -2.6174,-2.16822 -4.03462,-3.12098 -2.41033,-1.80668 -4.462218,-4.02881 -6.347474,-6.36505 -2.932643,-3.30241 -4.598301,-7.49537 -6.0036029,-11.62527 -1.3554742,-4.16324 -2.2853092,-8.60185 -2.7481174,-12.92762 -0.5510856,-5.11846 -1.2683278,-10.19203 -1.0714869,-15.33879 0.1288617,-2.43025 0.6120925,-5.21696 2.7471719,-6.71289 2.1751523,-1.50123 4.8619033,-1.88468 7.3441653,-2.37729 7.958939,-1.44253 15.873007,-3.12213 23.730737,-5.03372 0.808291,-0.17971 1.624512,-0.35513 2.45411,-0.39159 z" /></g></svg>
