<?xml version="1.0" encoding="UTF-8" standalone="no"?>
<!-- Created with Inkscape (http://www.inkscape.org/) -->

<svg width="80.102821mm" height="79.262474mm" viewBox="0 0 80.102821 79.262474" version="1.1" id="svg1" xml:space="preserve" xmlns:inkscape="http://www.inkscape.org/namespaces/inkscape" xmlns:sodipodi="http://sodipodi.sourceforge.net/DTD/sodipodi-0.dtd" xmlns="http://www.w3.org/2000/svg" xmlns:svg="http://www.w3.org/2000/svg"><sodipodi:namedview id="namedview1" pagecolor="#505050" bordercolor="#eeeeee" borderopacity="1" inkscape:showpageshadow="0" inkscape:pageopacity="0" inkscape:pagecheckerboard="0" inkscape:deskcolor="#505050" inkscape:document-units="mm" /><defs id="defs1" /><g inkscape:label="Layer 1" inkscape:groupmode="layer" id="layer1" transform="translate(-1.1978871,-218.4875)"><path id="path13" style="display:none;fill:#000000;stroke-width:1.18434" inkscape:label="path12" d="m 41.503906,218.49609 c -5.443489,0.71753 -10.648568,2.44474 -16.031362,3.39496 -5.570449,1.18872 -11.238089,1.98082 -16.7123898,3.57571 -3.4175384,1.24513 -6.345812,4.1809 -6.953239,7.85185 -1.21743637,4.98191 -0.2878086,10.12203 0.035782,15.15167 0.8725213,9.2371 2.5570542,18.64777 7.114236,26.84747 3.2519988,5.66663 8.1559898,10.16413 13.3437408,14.03477 2.00894,1.35385 4.197975,2.41098 6.304119,3.60225 3.547627,1.85806 7.226438,3.53862 11.08786,4.62339 3.550829,0.66923 7.074256,-0.73073 10.226663,-2.22835 5.729469,-2.70677 11.387778,-5.80435 16.061153,-10.14083 4.997228,-4.7576 8.977382,-10.67563 11.003545,-17.30319 1.479307,-3.88086 2.528077,-7.93115 2.94595,-12.06794 0.917938,-6.95345 1.465577,-13.97132 1.357145,-20.98824 -0.09962,-2.78373 -0.874695,-5.76332 -3.086111,-7.62774 -2.12267,-1.84594 -5.002005,-2.3546 -7.672843,-2.89753 -8.846652,-1.47831 -17.612746,-3.47501 -26.366989,-5.4626 -0.879569,-0.15998 -1.754254,-0.4253 -2.65726,-0.36565 z m 0.214844,4.18164 c 1.750419,0.0719 3.405244,0.76429 5.117675,1.08958 7.933484,1.89262 15.940896,3.44801 23.968351,4.8803 1.905325,0.43393 4.173281,0.77655 5.353102,2.52154 1.138408,1.98974 0.966664,4.38579 0.993607,6.59878 -0.212744,7.65453 -0.811265,15.31402 -2.217331,22.85611 -0.331086,1.82082 -1.203785,3.47711 -1.687292,5.2578 -1.352205,4.28745 -3.280943,8.45657 -6.191814,11.91754 -1.902434,2.53264 -4.239023,4.71266 -6.654979,6.74639 -1.019791,0.61809 -1.999782,1.30248 -2.981744,1.98372 -3.575683,2.26134 -7.315504,4.2623 -11.223889,5.88736 -1.834457,0.87035 -3.887317,1.33536 -5.915139,1.06753 -4.253683,-1.55037 -8.422631,-3.28823 -12.269531,-5.66993 -0.728468,-0.52675 -1.534171,-0.92327 -2.361899,-1.24352 -1.502224,-0.83063 -2.6174,-2.16822 -4.03462,-3.12098 -2.41033,-1.80668 -4.462218,-4.02881 -6.347474,-6.36505 -2.932643,-3.30241 -4.598301,-7.49537 -6.0036029,-11.62527 -1.3554742,-4.16324 -2.2853092,-8.60185 -2.7481174,-12.92762 -0.5510856,-5.11846 -1.2683278,-10.19203 -1.0714869,-15.33879 0.1288617,-2.43025 0.6120925,-5.21696 2.7471719,-6.71289 2.1751523,-1.50123 4.8619033,-1.88468 7.3441653,-2.37729 7.958939,-1.44253 15.873007,-3.12213 23.730737,-5.03372 0.808291,-0.17971 1.624512,-0.35513 2.45411,-0.39159 z" inkscape:export-filename="heat outer.svg" inkscape:export-xdpi="30" inkscape:export-ydpi="30" /><path id="path12" style="display:inline;fill:#ffffff;fill-opacity:1;stroke-width:1.18434" inkscape:label="path12" d="m 41.51027,219.02545 c -5.136851,0.66951 -10.093481,2.31759 -15.146417,3.21987 -5.706118,1.23221 -11.505778,2.06636 -17.1379474,3.61217 -3.2375715,1.1169 -6.1323717,3.73697 -6.8118484,7.19621 -1.3023429,4.83338 -0.4157816,9.86679 -0.1009842,14.76818 0.8548757,9.39475 2.4941437,18.99236 7.1533583,27.3239 2.8764427,4.97867 7.0632417,9.04954 11.5617807,12.56366 1.502098,1.30222 3.221865,2.29833 4.980667,3.20273 4.273856,2.47666 8.765972,4.63406 13.493334,6.08783 2.865464,0.67117 5.825811,-0.24729 8.470438,-1.33177 5.892649,-2.67467 11.708868,-5.72696 16.664852,-9.93564 5.311701,-4.79001 9.619042,-10.83373 11.741105,-17.71018 1.345532,-3.57234 2.446253,-7.2529 2.867341,-11.05932 0.980613,-6.96355 1.542232,-13.99704 1.542916,-21.03165 -0.02412,-2.75443 -0.413988,-5.76145 -2.431578,-7.8223 -1.820449,-1.99809 -4.612061,-2.54425 -7.130102,-3.12746 -6.963138,-1.17308 -13.863039,-2.57432 -20.773381,-4.16116 -2.719492,-0.57151 -5.415161,-1.30446 -8.148512,-1.78038 -0.264202,-0.0308 -0.529806,-0.0117 -0.795022,-0.0147 z m 0.211761,3.12317 c 0.64203,-0.0164 1.130364,0.0803 1.784667,0.25094 6.04849,1.5769 16.899039,3.87801 24.431461,5.1814 10.110471,1.74951 10.279935,2.0575 9.436827,17.10797 -0.384924,6.87138 -1.734758,16.6564 -2.500126,18.12268 -0.143234,0.2744 -0.707879,1.90893 -1.254653,3.63238 -1.27749,4.02668 -3.214001,7.92915 -5.165498,10.40872 -0.172346,0.21899 -0.937762,1.20999 -1.70082,2.20208 -1.346206,1.75028 -5.822448,5.9992 -6.675978,6.33691 -0.232238,0.0919 -0.91054,0.54091 -1.506808,0.9976 -1.130383,0.86578 -6.235629,3.81075 -8.134436,4.6924 -5.388255,2.5019 -6.328022,2.84389 -8.147288,2.96649 -0.9479,0.0638 -1.934983,0.0347 -2.193501,-0.0649 -0.258518,-0.0996 -1.534098,-0.58093 -2.834292,-1.06981 -3.070843,-1.15468 -7.695655,-3.41103 -9.533527,-4.6514 -0.798399,-0.53883 -1.590723,-0.97985 -1.76141,-0.97985 -0.340558,0 -2.127715,-1.19996 -2.631711,-1.76692 -0.174311,-0.19608 -1.022085,-0.88034 -1.883816,-1.52089 -1.822254,-1.35454 -3.989573,-3.41504 -5.327074,-5.06451 -0.517039,-0.63762 -1.151588,-1.39092 -1.410107,-1.67389 -3.900923,-4.26971 -7.4639744,-14.06421 -8.6099796,-23.66948 -2.5978644,-21.77412 -1.8028307,-24.0104 9.2366946,-25.9854 6.415896,-1.14783 15.566239,-3.05057 20.409839,-4.2444 3.404411,-0.83911 4.901486,-1.1808 5.971536,-1.20814 z" /></g></svg>
